<?xml version="1.0" standalone="no"?>
<!DOCTYPE svg PUBLIC "-//W3C//DTD SVG 20010904//EN"
 "http://www.w3.org/TR/2001/REC-SVG-20010904/DTD/svg10.dtd">
<svg version="1.0" xmlns="http://www.w3.org/2000/svg"
 width="72.000000pt" height="72.000000pt" viewBox="0 0 72.000000 72.000000"
 preserveAspectRatio="xMidYMid meet">
<metadata>
Created by potrace 1.14, written by Peter Selinger 2001-2017
</metadata>
<g transform="translate(0.000000,72.000000) scale(0.100000,-0.100000)"
fill="#000000" stroke="none">
<path d="M245 550 c-38 -19 -85 -73 -85 -97 0 -6 -16 -21 -35 -33 -77 -48 -86
-139 -20 -197 21 -18 40 -32 44 -31 3 0 33 0 67 -1 46 -1 65 -6 83 -22 l22
-21 22 20 c20 18 37 21 160 24 l139 3 30 33 c24 28 29 41 27 75 -1 23 -10 50
-18 61 -19 22 -71 50 -79 42 -3 -3 -14 8 -24 25 -18 29 -75 62 -90 53 -4 -3
-21 9 -38 26 -59 61 -134 75 -205 40z"/>
</g>
</svg>
